# AST/ASF file generated using VICON BodyLanguage
# -----------------------------------------------
:version 1.10
:name VICON
:units
  mass 1.0
  length 0.45
  angle deg
:documentation
   .ast/.asf automatically generated from VICON data using
   VICON BodyBuilder and BodyLanguage model FoxedUp or BRILLIANT.MOD
:root
   order TX TY TZ RX RY RZ
   axis XYZ
   position 0 0 0  
   orientation 0 0 0 
:bonedata
  begin
     id 1 
     name lhipjoint
     direction 0.578396 -0.714046 0.394458 
     length 2.21935 
     axis 0 0 0  XYZ
  end
  begin
     id 2 
     name lfemur
     direction 0.34202 -0.939693 0  
     length 6.39105  
     axis 0 0 20  XYZ
    dof rx ry rz
    limits (-160.0 20.0)
           (-70.0 70.0)
           (-60.0 70.0)
  end
  begin
     id 3 
     name ltibia
     direction 0.34202 -0.939693 0   
     length 6.99037   
     axis 0 0 20   XYZ
    dof rx
    limits (-10.0 170.0)
  end
  begin
     id 4 
     name lfoot
     direction 0.0582372 -0.160005 0.985397   
     length 2.06111   
     axis -90 7.62852e-016 20   XYZ
    dof rx rz
    limits (-45.0 90.0)
           (-70.0 20.0)
  end
  begin
     id 5 
     name ltoes
     direction 1.53556e-011 -4.21875e-011 1   
     length 1.04074   
     axis -90 7.62852e-016 20   XYZ
    dof rx
    limits (-90.0 20.0)
  end
  begin
     id 6 
     name rhipjoint
     direction -0.558179 -0.726269 0.40121   
     length 2.182  
     axis 0 0 0  XYZ 
  end
  begin
     id 7 
     name rfemur
     direction -0.34202 -0.939693 0   
     length 6.51172   
     axis 0 0 -20   XYZ
    dof rx ry rz
    limits (-160.0 20.0)
           (-70.0 70.0)
           (-70.0 60.0)
  end
  begin
     id 8 
     name rtibia
     direction -0.34202 -0.939693 0   
     length 7.02607   
     axis 0 0 -20   XYZ
    dof rx
    limits (-10.0 170.0)
 end
 begin
     id 9 
     name rfoot
     direction -0.0788856 -0.216737 0.973038   
     length 1.96734  
     axis -90 -7.62852e-016 -20   XYZ
    dof rx rz
    limits (-45.0 90.0)
           (-20.0 70.0)
  end
  begin
     id 10 
     name rtoes
     direction -1.53567e-011 -4.21783e-011 1   
     length 0.990825   
     axis -90 -7.62852e-016 -20   XYZ
    dof rx
    limits (-90.0 20.0)
  end
  begin
     id 11 
     name lowerback
     direction 0.00668177 0.999323 -0.0361741   
     length 1.7655   
     axis 0 0 0   XYZ
    dof rx ry rz
    limits (-20.0 45.0)
           (-30.0 30.0)
           (-30.0 30.0)
  end
  begin
     id 12 
     name upperback
     direction -0.00222086 0.99851 0.0545167   
     length 1.74912   
     axis 0 0 0   XYZ
    dof rx ry rz
    limits (-20.0 45.0)
           (-30.0 30.0)
           (-30.0 30.0)
  end
  begin
     id 13 
     name thorax
     direction -0.00733971 0.997496 0.0703443   
     length 1.75715   
     axis 0 0 0   XYZ
    dof rx ry rz
    limits (-20.0 45.0)
           (-30.0 30.0)
           (-30.0 30.0)
  end
  begin
     id 14 
     name lowerneck
     direction 0.0279797 0.994795 0.0979765   
     length 1.46939   
     axis 0 0 0   XYZ
    dof rx ry rz
    limits (-20.0 45.0)
           (-30.0 30.0)
           (-30.0 30.0)
  end
  begin
     id 15 
     name upperneck
     direction 0.00339187 0.976776 -0.214238   
     length 1.48018   
     axis 0 0 0   XYZ
    dof rx ry rz
    limits (-20.0 45.0)
           (-30.0 30.0)
           (-30.0 30.0)
  end
  begin
     id 16
     name head
     direction -0.00263506 0.996603 -0.0823096  
     length 1.4976  
     axis 0 0 0   XYZ
    dof rx ry rz
    limits (-20.0 45.0)
           (-30.0 30.0)
           (-30.0 30.0)
  end
  begin
     id 17 
     name lclavicle
     direction 0.894044 0.44508 -0.0508781  
     length 3.03024  
     axis 0 0 0   XYZ
    dof ry rz
    limits (-20.0 10.0)
           (0.0 20.0)
  end
  begin
     id 18 
     name lhumerus
     direction 1 -4.48961e-011 -2.39475e-018   
     length 4.4661   
     axis 180 -30 -90   XYZ
    dof rx ry rz
    limits (-60.0 90.0)
           (-90.0 90.0)
           (-90.0 90.0)
  end
  begin
     id 19
     name lradius
     direction 1 -4.48961e-011 9.29328e-028   
     length 3.41414   
     axis 180 -30 -90   XYZ
    dof rx
    limits (-10.0 170.0)
  end
  begin
     id 20
     name lwrist
     direction 1 -4.48985e-011 1.53461e-026   
     length 1.70707   
     axis -1.09697e-014 90 90   XYZ
    dof ry
    limits (-180.0 0.0)
 end
  begin
     id 21 
     name lhand
     direction 1 -4.48966e-011 3.06923e-026   
     length 0.328298   
     axis -1.95843e-014 90 90   XYZ
    dof rx rz
    limits (-90.0 90.0)
           (-45.0 45.0)
  end
  begin
     id 22 
     name lfingers
     direction 1 -4.48893e-011 6.13845e-026   
     length 0.264682   
     axis -3.91686e-014 90 90   XYZ
    dof rx
    limits (0.0 90.0)
  end
  begin
     id 23
     name lthumb
     direction 0.707107 -6.34876e-011 0.707107   
     length 0.380032   
     axis -90 45 2.85299e-015   XYZ
    dof rx rz
    limits (-45.0 45.0)
           (-45.0 45.0)
  end
  begin
     id 24 
     name rclavicle
     direction -0.936955 0.347862 -0.0332887   
     length 3.26927  
     axis 0 0 0   XYZ 
    dof ry rz
    limits (-10.0 20.0)
           (-20.0 0.0)
  end
  begin
     id 25 
     name rhumerus
     direction -1 -4.4896e-011 1.78637e-018  
     length 4.40431   
     axis 180 30 90   XYZ
    dof rx ry rz
    limits (-90.0 60.0)
           (-90.0 90.0)
           (-90.0 90.0)
  end
  begin
     id 26 
     name rradius
     direction -1 -4.48955e-011 9.34036e-027   
     length 3.04688   
     axis 180 30 90   XYZ
    dof rx
    limits (-10.0 170.0)
  end
  begin
     id 27 
     name rwrist
     direction -1 -4.49011e-011 1.53461e-026   
     length 1.52344   
     axis -1.09697e-014 -90 -90   XYZ
    dof ry
    limits (-180.0 0.0)
  end
  begin
     id 28
     name rhand
     direction -1 -4.48834e-011 3.06923e-026   
     length 0.500489   
     axis -1.95843e-014 -90 -90   XYZ
    dof rx rz
    limits (-90.0 90.0)
           (-45.0 45.0)
  end
  begin
     id 29
     name rfingers
     direction -1 -4.48967e-011 6.13845e-026   
     length 0.403507   
     axis -3.91686e-014 -90 -90   XYZ
    dof rx
    limits (0.0 90.0)
  end
  begin
     id 30
     name rthumb
     direction -0.707107 -6.34826e-011 0.707107   
     length 0.579358   
     axis -90 -45 -2.85299e-015   XYZ
    dof rx rz
    limits (-45.0 45.0)
           (-45.0 45.0)
  end
:hierarchy
  begin
    root lhipjoint rhipjoint lowerback
    lhipjoint lfemur
    lfemur ltibia
    ltibia lfoot
    lfoot ltoes
    rhipjoint rfemur
    rfemur rtibia
    rtibia rfoot
    rfoot rtoes
    lowerback upperback
    upperback thorax
    thorax lowerneck lclavicle rclavicle
    lowerneck upperneck
    upperneck head
    lclavicle lhumerus
    lhumerus lradius
    lradius lwrist
    lwrist lhand lthumb
    lhand lfingers
    rclavicle rhumerus
    rhumerus rradius
    rradius rwrist
    rwrist rhand rthumb
    rhand rfingers
  end

#!OML:ASF H:\IndianDance\Patient Classification 1\Patient 1\Session 1\dancer.ASF
:FULLY-SPECIFIED
:DEGREES
1567
root 7.6726 15.835 -1.60665 -173.546 22.9028 -182.751
lowerback 0.306073 -1.18794 -3.78454
upperback -5.76616 -1.45215 0.69706
thorax -6.04579 -0.402258 2.91321
lowerneck -8.73546 -15.4438 -10.8389
upperneck 15.6177 -21.8597 14.9423
head 9.2334 -9.56696 3.98577
rclavicle -6.05796e-014 -2.94201e-014
rhumerus -0.235485 42.8799 -19.1451
rradius 100.586
rwrist -26.3042
rhand -9.21128 19.7373
rfingers 7.12502
rthumb 16.743 -9.56068
lclavicle -6.05796e-014 -2.94201e-014
lhumerus -14.1885 -40.2314 7.52209
lradius 108.199
lwrist 15.0518
lhand -2.3065 0.470125
lfingers 7.12502
lthumb 23.3794 29.0701
rfemur -216.28 192.801 189.393
rtibia 51.1631
rfoot 8.61414 -360.881
rtoes -8.94916
lfemur -6.07828 7.48436 -4.51216
ltibia 24.1556
lfoot 6.41897 24.8562
ltoes 14.2237
1568
root 7.87977 15.8521 -1.58715 -173.506 22.2867 -182.813
lowerback 0.0709751 -1.31938 -3.72588
upperback -5.83432 -1.61337 0.546785
thorax -5.97508 -0.485134 2.7263
lowerneck -8.58678 -15.5162 -10.9661
upperneck 15.4917 -21.9408 14.9301
head 9.18769 -9.62988 3.9953
rclavicle -1.65488e-014 -1.03368e-014
rhumerus -1.06891 42.4892 -19.1678
rradius 99.2479
rwrist -26.0061
rhand -9.01259 19.6765
rfingers 7.12502
rthumb 16.9343 -9.60524
lclavicle -1.65488e-014 -1.03368e-014
lhumerus -14.1365 -39.8109 6.98506
lradius 106.213
lwrist 15.3826
lhand -2.09889 0.473977
lfingers 7.12502
lthumb 23.5785 29.0485
rfemur -215.315 192.85 190.268
rtibia 50.6585
rfoot 6.90951 -362.194
rtoes -10.2397
lfemur -7.40132 8.64519 -4.86553
ltibia 25.8054
lfoot 6.18966 21.9548
ltoes 10.6154
1569
root 8.0819 15.8617 -1.56531 -173.564 21.7117 -182.911
lowerback 0.0041219 -1.42367 -3.66037
upperback -5.90449 -1.74806 0.381881
thorax -6.00716 -0.554225 2.523
lowerneck -8.40428 -15.5786 -11.0991
upperneck 15.3643 -22.0042 14.8912
head 9.1302 -9.68959 4.00281
rclavicle 5.1684e-014 6.95746e-015
rhumerus -1.81738 42.1596 -19.1267
rradius 97.8292
rwrist -25.7404
rhand -8.81699 19.5739
rfingers 7.12502
rthumb 17.1226 -9.6916
lclavicle 5.1684e-014 6.95746e-015
lhumerus -14.0382 -39.4656 6.47067
lradius 104.171
lwrist 15.6738
lhand -1.84359 0.470388
lfingers 7.12502
lthumb 23.8234 29.0132
rfemur -214.427 192.935 191.048
rtibia 50.2453
rfoot 5.4078 -363.287
rtoes -11.0075
lfemur -8.74601 10.0047 -5.39392
ltibia 27.673
lfoot 5.6425 17.9331
ltoes 5.00759
1570
root 8.27869 15.8646 -1.54068 -173.714 21.2055 -183.023
lowerback 0.113507 -1.4947 -3.58116
upperback -5.9758 -1.84836 0.210436
thorax -6.14599 -0.606088 2.30854
lowerneck -8.19801 -15.6326 -11.2315
upperneck 15.2408 -22.0543 14.8318
head 9.06532 -9.74596 4.008
rclavicle 1.3244e-014 -2.78299e-015
rhumerus -2.4857 41.887 -19.0369
rradius 96.3326
rwrist -25.545
rhand -8.62743 19.4853
rfingers 7.12502
rthumb 17.305 -9.76422
lclavicle 1.3244e-014 -2.78299e-015
lhumerus -13.923 -39.1893 5.99723
lradius 102.096
lwrist 15.936
lhand -1.52596 0.47242
lfingers 7.12502
lthumb 24.128 28.9752
rfemur -213.611 193.039 191.742
rtibia 49.9403
rfoot 4.0624 -364.122
rtoes -11.3163
lfemur -10.0829 11.4559 -6.07923
ltibia 29.7252
lfoot 4.34632 13.2889
ltoes -0.963659
1571
root 8.46943 15.8614 -1.51282 -173.942 20.7869 -183.132
lowerback 0.391096 -1.53143 -3.47938
upperback -6.04188 -1.91212 0.0476805
thorax -6.38009 -0.640619 2.09377
lowerneck -7.99064 -15.6806 -11.3642
upperneck 15.1247 -22.0936 14.7508
head 8.99865 -9.79911 4.0084
rclavicle -4.31487e-014 -6.16232e-015
rhumerus -3.05484 41.6579 -18.8862
rradius 94.7712
rwrist -25.4421
rhand -8.47095 19.4075
rfingers 7.12502
rthumb 17.4556 -9.82881
lclavicle -4.31487e-014 -6.16232e-015
lhumerus -13.8362 -38.9607 5.6005
lradius 100.01
lwrist 16.1765
lhand -1.17709 0.468025
lfingers 7.12502
lthumb 24.4625 28.926
rfemur -212.88 193.17 192.368
rtibia 49.7706
rfoot 2.8819 -364.672
rtoes -11.2975
lfemur -11.4075 12.9382 -6.90684
ltibia 31.9355
lfoot 2.40887 8.44108
ltoes -6.52243
1572
root 8.65398 15.8533 -1.48155 -174.227 20.4758 -183.205
lowerback 0.817673 -1.5305 -3.33672
upperback -6.09801 -1.93242 -0.0926459
thorax -6.69387 -0.655888 1.88155
lowerneck -7.78796 -15.7231 -11.5015
upperneck 15.0068 -22.1236 14.6619
head 8.93056 -9.84886 4.00835
rclavicle -7.96257e-014 -2.54444e-014
rhumerus -3.52646 41.4512 -18.6771
rradius 93.1538
rwrist -25.373
rhand -8.36681 19.3497
rfingers 7.12502
rthumb 17.5559 -9.87769
lclavicle -7.96257e-014 -2.54444e-014
lhumerus -13.7998 -38.7636 5.29145
lradius 97.9303
lwrist 16.4163
lhand -0.818567 0.486522
lfingers 7.12502
lthumb 24.8061 28.8976
rfemur -212.248 193.331 192.968
rtibia 49.7536
rfoot 1.85911 -364.948
rtoes -11.1433
lfemur -12.7169 14.4382 -7.84254
ltibia 34.2742
lfoot 0.152876 3.68028
ltoes -11.2975
1573
root 8.83215 15.8408 -1.44693 -174.538 20.2778 -183.202
lowerback 1.36358 -1.49543 -3.13038
upperback -6.14147 -1.90924 -0.190125
thorax -7.06726 -0.653445 1.67876
lowerneck -7.60104 -15.758 -11.6239
upperneck 14.8806 -22.14 14.5509
head 8.85613 -9.89336 4.00076
rclavicle 6.81334e-014 9.14409e-015
rhumerus -3.89297 41.2487 -18.4002
rradius 91.4967
rwrist -25.3124
rhand -8.30524 19.3098
rfingers 7.12502
rthumb 17.6151 -9.91226
lclavicle 6.81334e-014 9.14409e-015
lhumerus -13.8515 -38.5757 5.09268
lradius 95.8797
lwrist 16.6688
lhand -0.469613 0.55268
lfingers 7.12502
lthumb 25.1405 28.9173
rfemur -211.721 193.536 193.6
rtibia 49.8861
rfoot 0.970168 -364.964
rtoes -11.0332
lfemur -14.0107 15.9488 -8.83455
ltibia 36.7014
lfoot -2.0837 -0.820721
ltoes -15.1096
1574
root 9.004 15.8244 -1.40922 -174.843 20.1952 -183.088
lowerback 1.99003 -1.43051 -2.8319
upperback -6.16827 -1.84178 -0.232055
thorax -7.47372 -0.635148 1.48053
lowerneck -7.43864 -15.7812 -11.7239
upperneck 14.737 -22.1369 14.4211
head 8.77254 -9.92919 3.98626
rclavicle -3.09359e-015 -1.2921e-015
rhumerus -4.15222 41.0285 -18.0593
rradius 89.8045
rwrist -25.1826
rhand -8.2859 19.2723
rfingers 7.12502
rthumb 17.6337 -9.9481
lclavicle -3.09359e-015 -1.2921e-015
lhumerus -14.0056 -38.3767 5.00281
lradius 93.8645
lwrist 16.9187
lhand -0.176372 0.633729
lfingers 7.12502
lthumb 25.4214 28.9586
rfemur -211.307 193.794 194.317
rtibia 50.1492
rfoot 0.201056 -364.748
rtoes -10.9814
lfemur -15.2842 17.4792 -9.83037
ltibia 39.1629
lfoot -4.01358 -4.99795
ltoes -17.955
1575
root 9.17005 15.8055 -1.36908 -175.106 20.2189 -182.819
lowerback 2.65735 -1.34394 -2.40595
upperback -6.17933 -1.73232 -0.208208
thorax -7.89111 -0.604499 1.27577
lowerneck -7.29909 -15.7892 -11.7867
upperneck 14.5683 -22.1098 14.2697
head 8.67425 -9.95399 3.96316
rclavicle 1.68346e-014 6.36111e-015
rhumerus -4.31607 40.7781 -17.6766
rradius 88.0785
rwrist -24.9301
rhand -8.2935 19.2316
rfingers 7.12502
rthumb 17.6264 -9.98943
lclavicle 1.68346e-014 6.36111e-015
lhumerus -14.2671 -38.1546 5.01019
lradius 91.8964
lwrist 17.1523
lhand 0.0760555 0.740449
lfingers 7.12502
lthumb 25.6632 29.0307
rfemur -211.006 194.103 195.169
rtibia 50.5164
rfoot -0.436624 -364.293
rtoes -11.0179
lfemur -16.5272 19.0202 -10.762
ltibia 41.5923
lfoot -5.35663 -8.85061
ltoes -19.596
1576
root 9.33064 15.7851 -1.32744 -175.295 20.3353 -182.391
lowerback 3.31313 -1.24235 -1.85124
upperback -6.17662 -1.58192 -0.114707
thorax -8.28991 -0.562249 1.06555
lowerneck -7.18654 -15.7835 -11.8157
upperneck 14.3779 -22.0607 14.0992
head 8.56439 -9.9682 3.93205
rclavicle -5.71009e-014 -1.47101e-014
rhumerus -4.38176 40.4909 -17.2451
rradius 86.3164
rwrist -24.5576
rhand -8.31205 19.1526
rfingers 7.12502
rthumb 17.6086 -10.0701
lclavicle -5.71009e-014 -1.47101e-014
lhumerus -14.6256 -37.9001 5.1072
lradius 89.9731
lwrist 17.3459
lhand 0.296257 0.836538
lfingers 7.12502
lthumb 25.8741 29.0962
rfemur -210.831 194.476 196.168
rtibia 50.9696
rfoot -0.928191 -363.613
rtoes -11.101
lfemur -17.7388 20.5577 -11.6114
ltibia 43.9078
lfoot -5.93381 -12.3644
ltoes -20.258
1577
root 9.48654 15.7646 -1.28537 -175.39 20.5263 -181.822
lowerback 3.9168 -1.13268 -1.17996
upperback -6.16734 -1.39547 0.0338779
thorax -8.65277 -0.510051 0.840214
lowerneck -7.0954 -15.764 -11.8023
upperneck 14.1729 -21.992 13.9128
head 8.44424 -9.97163 3.89292
rclavicle -1.9133e-014 -8.54774e-015
rhumerus -4.37662 40.1744 -16.801
rradius 84.5115
rwrist -24.0891
rhand -8.34295 19.0273
rfingers 7.12502
rthumb 17.5788 -10.198
lclavicle -1.9133e-014 -8.54774e-015
lhumerus -15.0476 -37.6215 5.25743
lradius 88.0877
lwrist 17.4857
lhand 0.507619 0.9131
lfingers 7.12502
lthumb 26.0765 29.1431
rfemur -210.79 194.92 197.294
rtibia 51.501
rfoot -1.25255 -362.696
rtoes -11.2658
lfemur -18.9087 22.0287 -12.3767
ltibia 46.0194
lfoot -5.54303 -15.5084
ltoes -19.5171
1578
root 9.63904 15.7453 -1.244 -175.388 20.7725 -181.163
lowerback 4.42472 -1.02157 -0.448991
upperback -6.15303 -1.18447 0.221106
thorax -8.95319 -0.449866 0.614404
lowerneck -7.03085 -15.7338 -11.7497
upperneck 13.9669 -21.9097 13.7187
head 8.32174 -9.96537 3.84712
rclavicle -4.1223e-014 3.97569e-016
rhumerus -4.30535 39.8262 -16.3621
rradius 82.6455
rwrist -23.5574
rhand -8.35398 18.926
rfingers 7.12502
rthumb 17.5682 -10.3002
lclavicle -4.1223e-014 3.97569e-016
lhumerus -15.5037 -37.3222 5.43544
lradius 86.2287
lwrist 17.5758
lhand 0.726399 0.959711
lfingers 7.12502
lthumb 26.286 29.1586
rfemur -210.895 195.434 198.491
rtibia 52.1158
rfoot -1.39318 -361.532
rtoes -11.4412
lfemur -20.0221 23.3566 -13.0862
ltibia 47.8395
lfoot -4.06028 -18.1495
ltoes -16.8912
1579
root 9.78909 15.7278 -1.20435 -175.296 21.0558 -180.49
lowerback 4.79926 -0.911241 0.266631
upperback -6.135 -0.961099 0.426051
thorax -9.16804 -0.382472 0.409334
lowerneck -6.99013 -15.6964 -11.6859
upperneck 13.7722 -21.821 13.5398
head 8.20769 -9.95173 3.80407
rclavicle -6.85062e-014 -6.75868e-015
rhumerus -4.175 39.4583 -15.9388
rradius 80.722
rwrist -23.0178
rhand -8.39892 18.8024
rfingers 7.12502
rthumb 17.525 -10.4277
lclavicle -6.85062e-014 -6.75868e-015
lhumerus -15.9623 -37.0138 5.62409
lradius 84.3856
lwrist 17.6247
lhand 0.955863 0.991622
lfingers 7.12502
lthumb 26.5056 29.1576
rfemur -211.164 196.023 199.673
rtibia 52.8276
rfoot -1.33201 -360.115
rtoes -11.5281
lfemur -21.0735 24.4625 -13.7975
ltibia 49.3002
lfoot -1.66656 -20.0855
ltoes -12.09
1580
root 9.9381 15.7126 -1.16735 -175.141 21.3638 -179.871
lowerback 5.02818 -0.803279 0.89983
upperback -6.11459 -0.740473 0.621647
thorax -9.29023 -0.310855 0.236739
lowerneck -6.97093 -15.6516 -11.6066
upperneck 13.6042 -21.7282 13.3827
head 8.10734 -9.93013 3.76473
rclavicle -3.77691e-015 -9.74045e-015
rhumerus -3.99564 39.0767 -15.5567
rradius 78.7356
rwrist -22.4933
rhand -8.4804 18.7074
rfingers 7.12502
rthumb 17.4466 -10.5297
lclavicle -3.77691e-015 -9.74045e-015
lhumerus -16.3927 -36.7176 5.78886
lradius 82.5469
lwrist 17.6483
lhand 1.19199 1.01311
lfingers 7.12502
lthumb 26.7316 29.1448
rfemur -211.593 196.668 200.755
rtibia 53.6502
rfoot -1.03288 -358.437
rtoes -11.4797
lfemur -22.0315 25.2691 -14.543
ltibia 50.3631
lfoot 0.927208 -21.0284
ltoes -6.07337
1581
root 10.0871 15.7001 -1.13321 -174.96 21.6889 -179.371
lowerback 5.10895 -0.697118 1.37885
upperback -6.08577 -0.536057 0.794616
thorax -9.31098 -0.236797 0.125717
lowerneck -6.98431 -15.6005 -11.5146
upperneck 13.4766 -21.6322 13.2409
head 8.02662 -9.90081 3.72605
rclavicle -1.58282e-014 -2.14687e-014
rhumerus -3.76498 38.6721 -15.2166
rradius 76.694
rwrist -21.9981
rhand -8.59501 18.6493
rfingers 7.12502
rthumb 17.3363 -10.5975
lclavicle -1.58282e-014 -2.14687e-014
lhumerus -16.7761 -36.442 5.9228
lradius 80.702
lwrist 17.652
lhand 1.3974 1.02739
lfingers 7.12502
lthumb 26.9281 29.1289
rfemur -212.175 197.343 201.656
rtibia 54.5949
rfoot -0.451487 -356.524
rtoes -11.2235
lfemur -22.8381 25.701 -15.3257
ltibia 51.0303
lfoot 2.56853 -20.8903
ltoes -1.19209
